<svg width="121" height="120" viewBox="0 0 121 120" fill="none" xmlns="http://www.w3.org/2000/svg">
<g id="121 1" clip-path="url(#clip0_389_2794)">
<g id="Group">
<g id="Group_2">
<path id="Vector" d="M95.8776 117.652H83.122C81.7769 117.652 80.6865 116.562 80.6865 115.216C80.6865 113.871 81.7769 112.781 83.122 112.781H95.8776C104.371 112.781 111.281 105.871 111.281 97.3771V84.6223C111.281 83.2772 112.371 82.1868 113.716 82.1868C115.061 82.1868 116.152 83.2772 116.152 84.6223V97.3771C116.152 102.793 114.043 107.884 110.214 111.714C106.384 115.543 101.293 117.652 95.8776 117.652Z" fill="white"/>
</g>
<g id="Group_3">
<path id="Vector_2" d="M32.8782 117.652H20.1225C14.7069 117.652 9.61536 115.543 5.78596 111.714C1.95656 107.884 -0.152344 102.793 -0.152344 97.3771V84.6223C-0.152344 83.2772 0.938057 82.1868 2.28316 82.1868C3.62826 82.1868 4.71866 83.2772 4.71866 84.6223V97.3771C4.71866 105.871 11.6288 112.781 20.1225 112.781H32.8781C34.2232 112.781 35.3136 113.871 35.3136 115.216C35.3137 116.562 34.2233 117.652 32.8782 117.652Z" fill="white"/>
</g>
<g id="Group_4">
<path id="Vector_3" d="M113.716 36.8129C112.371 36.8129 111.281 35.7225 111.281 34.3774V21.6218C111.281 13.1285 104.371 6.21866 95.8776 6.21866H83.122C81.7769 6.21866 80.6865 5.12826 80.6865 3.78316C80.6865 2.43806 81.7769 1.34766 83.122 1.34766H95.8776C101.293 1.34766 106.384 3.45656 110.214 7.28596C114.043 11.1154 116.152 16.2066 116.152 21.6219V34.3775C116.152 35.7225 115.061 36.8129 113.716 36.8129Z" fill="white"/>
</g>
<g id="Group_5">
<path id="Vector_4" d="M2.28316 36.813C0.938057 36.813 -0.152344 35.7226 -0.152344 34.3775V21.6219C-0.152344 16.2066 1.95666 11.1153 5.78596 7.28596C9.61536 3.45656 14.7069 1.34766 20.1225 1.34766H32.8781C34.2232 1.34766 35.3136 2.43806 35.3136 3.78316C35.3136 5.12826 34.2232 6.21866 32.8781 6.21866H20.1225C11.6288 6.21866 4.71866 13.1285 4.71866 21.6218V34.3774C4.71866 35.7226 3.62826 36.813 2.28316 36.813Z" fill="white"/>
</g>
<g id="Group_6">
<g id="Group_7">
<path id="Vector_5" d="M58.1202 94.1824C50.7973 94.1824 43.8333 91.4162 38.511 86.3934C37.5327 85.4702 37.4882 83.9287 38.4113 82.9505C39.3345 81.9723 40.8759 81.9274 41.8543 82.8508C46.2688 87.0169 52.0454 89.3113 58.1202 89.3113C64.1955 89.3113 69.9725 87.0169 74.387 82.8508C75.3653 81.9276 76.9066 81.9724 77.8299 82.9505C78.7531 83.9288 78.7085 85.4702 77.7302 86.3934C72.4079 91.4162 65.4436 94.1824 58.1202 94.1824Z" fill="white"/>
</g>
<g id="Group_8">
<path id="Vector_6" d="M52.31 73.6858H48.2675C46.9224 73.6858 45.832 72.5954 45.832 71.2503C45.832 69.9052 46.9224 68.8148 48.2675 68.8148H52.31C54.1894 68.8148 55.7185 67.2858 55.7185 65.4063V39.1103C55.7185 37.7652 56.8089 36.6748 58.154 36.6748C59.4991 36.6748 60.5895 37.7652 60.5895 39.1103V65.4062C60.5895 69.9716 56.8753 73.6858 52.31 73.6858Z" fill="white"/>
</g>
<g id="Group_9">
<g id="Group_10">
<path id="Vector_7" d="M37.3183 49.5228C35.9732 49.5228 34.8828 48.4324 34.8828 47.0873V39.1103C34.8828 37.7652 35.9732 36.6748 37.3183 36.6748C38.6634 36.6748 39.7538 37.7652 39.7538 39.1103V47.0873C39.7538 48.4324 38.6634 49.5228 37.3183 49.5228Z" fill="white"/>
</g>
<g id="Group_11">
<path id="Vector_8" d="M78.6806 49.5228C77.3355 49.5228 76.2451 48.4324 76.2451 47.0873V39.1103C76.2451 37.7652 77.3355 36.6748 78.6806 36.6748C80.0257 36.6748 81.1161 37.7652 81.1161 39.1103V47.0873C81.1161 48.4324 80.0257 49.5228 78.6806 49.5228Z" fill="white"/>
</g>
</g>
</g>
</g>
</g>
<defs>
<clipPath id="clip0_389_2794">
<rect width="120" height="120" fill="white" transform="translate(0.5)"/>
</clipPath>
</defs>
</svg>
