<svg width="20" height="20" viewBox="0 0 20 20" fill="none" xmlns="http://www.w3.org/2000/svg">
<g id="Frame">
<path id="Vector" d="M1.70801 10.833H6.27295C6.42211 13.5571 7.29807 16.0875 8.71024 18.2339C4.98992 17.6557 2.08366 14.6166 1.70801 10.833ZM1.70801 9.16636C2.08366 5.38284 4.98992 2.34374 8.71024 1.76562C7.29807 3.91191 6.42211 6.44237 6.27295 9.16636H1.70801ZM18.2924 9.16636H13.7274C13.5782 6.44237 12.7023 3.91191 11.2902 1.76562C15.0105 2.34374 17.9167 5.38284 18.2924 9.16636ZM18.2924 10.833C17.9167 14.6166 15.0105 17.6557 11.2902 18.2339C12.7023 16.0875 13.5782 13.5571 13.7274 10.833H18.2924ZM7.94247 10.833H12.0579C11.9149 13.1521 11.1791 15.3108 10.0002 17.1594C8.82124 15.3108 8.08548 13.1521 7.94247 10.833ZM7.94247 9.16636C8.08548 6.84735 8.82124 4.68871 10.0002 2.84012C11.1791 4.68871 11.9149 6.84735 12.0579 9.16636H7.94247Z" fill="white"/>
</g>
</svg>
