<svg width="20" height="20" viewBox="0 0 20 20" fill="none" xmlns="http://www.w3.org/2000/svg">
<g id="logout-2 1" clip-path="url(#clip0_217_3786)">
<g id="Group">
<path id="Vector" d="M14.5918 15.4169C14.3707 15.4169 14.1588 15.5047 14.0025 15.6609C13.8462 15.8172 13.7584 16.0292 13.7584 16.2502V16.6669C13.7584 16.7774 13.7145 16.8834 13.6364 16.9615C13.5582 17.0396 13.4523 17.0835 13.3418 17.0835H8.75842C8.703 17.0846 8.64792 17.0747 8.59641 17.0542C8.54489 17.0338 8.49797 17.0033 8.45839 16.9645C8.41881 16.9257 8.38737 16.8794 8.36591 16.8283C8.34445 16.7772 8.33341 16.7223 8.33342 16.6669V3.33353C8.33342 3.22303 8.37732 3.11705 8.45546 3.03891C8.5336 2.96077 8.63958 2.91687 8.75008 2.91687H13.3334C13.4439 2.91687 13.5499 2.96077 13.628 3.03891C13.7062 3.11705 13.7501 3.22303 13.7501 3.33353V4.16687C13.7501 4.38788 13.8379 4.59984 13.9942 4.75612C14.1504 4.9124 14.3624 5.0002 14.5834 5.0002C14.8044 5.0002 15.0164 4.9124 15.1727 4.75612C15.329 4.59984 15.4168 4.38788 15.4168 4.16687V2.08353C15.4168 1.86252 15.329 1.65056 15.1727 1.49428C15.0164 1.338 14.8044 1.2502 14.5834 1.2502H8.33342V0.416868C8.33356 0.355046 8.32021 0.293938 8.2943 0.237806C8.26839 0.181674 8.23055 0.13187 8.18342 0.091868C8.13486 0.0527458 8.07856 0.0243507 8.01824 0.00855124C7.95791 -0.00724827 7.89492 -0.010094 7.83342 0.000201286L0.333418 1.66687C0.237887 1.68635 0.152211 1.73871 0.0913047 1.81484C0.0303986 1.89098 -0.00188104 1.98606 8.47662e-05 2.08353V17.9169C-0.00188104 18.0143 0.0303986 18.1094 0.0913047 18.1856C0.152211 18.2617 0.237887 18.3141 0.333418 18.3335L7.83342 20.0002C7.89447 20.0111 7.95717 20.0086 8.01713 19.9927C8.07709 19.9769 8.13285 19.9481 8.1805 19.9084C8.22815 19.8687 8.26653 19.819 8.29294 19.7629C8.31936 19.7068 8.33318 19.6456 8.33342 19.5835V18.7502H14.5834C14.8044 18.7502 15.0164 18.6624 15.1727 18.5061C15.329 18.3498 15.4168 18.1379 15.4168 17.9169V16.2502C15.4168 16.0306 15.3301 15.8199 15.1756 15.6639C15.0211 15.5078 14.8113 15.4191 14.5918 15.4169ZM6.25842 10.4169C6.25841 10.6637 6.18531 10.9051 6.04832 11.1105C5.91133 11.3158 5.7166 11.476 5.48868 11.5709C5.26075 11.6657 5.00985 11.691 4.7676 11.6434C4.52536 11.5959 4.30262 11.4776 4.12748 11.3037C3.95233 11.1297 3.83263 10.9077 3.78346 10.6658C3.73429 10.4239 3.75786 10.1728 3.85119 9.94426C3.94453 9.71571 4.10344 9.51992 4.30791 9.38157C4.51237 9.24322 4.75322 9.16851 5.00008 9.16687C5.16494 9.16577 5.32838 9.19729 5.481 9.25962C5.63362 9.32194 5.7724 9.41384 5.88936 9.53002C6.00632 9.64621 6.09914 9.78438 6.16248 9.93658C6.22582 10.0888 6.25842 10.252 6.25842 10.4169Z" fill="white"/>
<path id="Vector_2" d="M19.6252 9.72483L15.5585 7.01649C15.4355 6.93692 15.2937 6.89117 15.1474 6.88385C15.0011 6.87654 14.8555 6.90792 14.7252 6.97483C14.5921 7.04568 14.4807 7.1513 14.403 7.28044C14.3252 7.40959 14.2839 7.55741 14.2835 7.70816V9.16649H10.8335C10.502 9.16649 10.184 9.29819 9.94961 9.53261C9.71519 9.76703 9.5835 10.085 9.5835 10.4165C9.5835 10.748 9.71519 11.066 9.94961 11.3004C10.184 11.5348 10.502 11.6665 10.8335 11.6665H14.2752V13.1248C14.2756 13.2756 14.3169 13.4234 14.3946 13.5525C14.4724 13.6817 14.5838 13.7873 14.7168 13.8582C14.8364 13.9252 14.9714 13.9597 15.1085 13.9582C15.2719 13.9569 15.4312 13.9076 15.5668 13.8165L19.6335 11.1082C19.7469 11.0319 19.8399 10.929 19.9041 10.8084C19.9684 10.6877 20.002 10.5532 20.002 10.4165C20.002 10.2798 19.9684 10.1453 19.9041 10.0246C19.8399 9.90402 19.7469 9.80106 19.6335 9.72483H19.6252Z" fill="white"/>
</g>
</g>
<defs>
<clipPath id="clip0_217_3786">
<rect width="20" height="20" fill="white"/>
</clipPath>
</defs>
</svg>
