<svg width="20" height="20" viewBox="0 0 20 20" fill="none" xmlns="http://www.w3.org/2000/svg">
<g id="vuesax/linear/microphone-2">
<g id="microphone-2">
<path id="Vector" d="M9.99984 12.916C11.8415 12.916 13.3332 11.4243 13.3332 9.58268V4.99935C13.3332 3.15768 11.8415 1.66602 9.99984 1.66602C8.15817 1.66602 6.6665 3.15768 6.6665 4.99935V9.58268C6.6665 11.4243 8.15817 12.916 9.99984 12.916Z" stroke="white" stroke-width="1.5" stroke-linecap="round" stroke-linejoin="round"/>
<path id="Vector_2" d="M3.625 8.04102V9.45768C3.625 12.9743 6.48333 15.8327 10 15.8327C13.5167 15.8327 16.375 12.9743 16.375 9.45768V8.04102" stroke="white" stroke-width="1.5" stroke-linecap="round" stroke-linejoin="round"/>
<path id="Vector_3" d="M8.8418 5.35859C9.5918 5.08359 10.4085 5.08359 11.1585 5.35859" stroke="white" stroke-width="1.5" stroke-linecap="round" stroke-linejoin="round"/>
<path id="Vector_4" d="M9.3335 7.12461C9.77516 7.00794 10.2335 7.00794 10.6752 7.12461" stroke="white" stroke-width="1.5" stroke-linecap="round" stroke-linejoin="round"/>
<path id="Vector_5" d="M10 15.834V18.334" stroke="white" stroke-width="1.5" stroke-linecap="round" stroke-linejoin="round"/>
</g>
</g>
</svg>
