<svg width="20" height="20" viewBox="0 0 20 20" fill="none" xmlns="http://www.w3.org/2000/svg">
<g id="vuesax/bold/notification-bing">
<g id="notification-bing">
<path id="Vector" d="M16.8253 11.7168L15.8837 10.1502C15.6753 9.8085 15.492 9.15016 15.492 8.75016V7.19183C15.492 4.16683 13.0337 1.7085 10.017 1.7085C6.992 1.71683 4.53367 4.16683 4.53367 7.19183V8.74183C4.53367 9.14183 4.35033 9.80016 4.15033 10.1418L3.20867 11.7085C2.85033 12.3168 2.767 13.0085 2.992 13.6085C3.217 14.2168 3.72533 14.7002 4.392 14.9168C5.292 15.2168 6.20033 15.4335 7.12533 15.5918C7.217 15.6085 7.30866 15.6168 7.40033 15.6335C7.517 15.6502 7.642 15.6668 7.767 15.6835C7.98366 15.7168 8.20033 15.7418 8.42533 15.7585C8.95033 15.8085 9.48367 15.8335 10.017 15.8335C10.542 15.8335 11.067 15.8085 11.5837 15.7585C11.7753 15.7418 11.967 15.7252 12.1503 15.7002C12.3003 15.6835 12.4503 15.6668 12.6003 15.6418C12.692 15.6335 12.7837 15.6168 12.8753 15.6002C13.8087 15.4502 14.7337 15.2168 15.6337 14.9168C16.2753 14.7002 16.767 14.2168 17.0003 13.6002C17.2337 12.9752 17.167 12.2918 16.8253 11.7168ZM10.6253 8.3335C10.6253 8.6835 10.342 8.96683 9.992 8.96683C9.642 8.96683 9.35866 8.6835 9.35866 8.3335V5.75016C9.35866 5.40016 9.642 5.11683 9.992 5.11683C10.342 5.11683 10.6253 5.40016 10.6253 5.75016V8.3335Z" fill="white"/>
<path id="Vector_2" d="M12.3587 16.6748C12.0087 17.6415 11.0837 18.3332 10.0004 18.3332C9.34206 18.3332 8.69206 18.0665 8.23372 17.5915C7.96706 17.3415 7.76706 17.0082 7.65039 16.6665C7.75872 16.6832 7.86706 16.6915 7.98372 16.7082C8.17539 16.7332 8.37539 16.7582 8.57539 16.7748C9.05039 16.8165 9.53372 16.8415 10.0171 16.8415C10.4921 16.8415 10.9671 16.8165 11.4337 16.7748C11.6087 16.7582 11.7837 16.7498 11.9504 16.7248C12.0837 16.7082 12.2171 16.6915 12.3587 16.6748Z" fill="white"/>
</g>
</g>
</svg>
