<svg width="20" height="20" viewBox="0 0 20 20" fill="none" xmlns="http://www.w3.org/2000/svg">
<g id="Frame">
<path id="Vector" d="M18.3332 14.1678C18.3323 16.5603 16.6512 18.5598 14.4058 19.0507L13.8742 17.4557C14.8775 17.2919 15.7303 16.6803 16.2206 15.8327H14.1665C13.246 15.8327 12.4998 15.0865 12.4998 14.166V10.8327C12.4998 9.91218 13.246 9.16602 14.1665 9.16602H16.6149C16.2048 5.87742 13.3995 3.33268 9.99984 3.33268C6.60015 3.33268 3.79483 5.87742 3.38475 9.16602H5.83317C6.75365 9.16602 7.49984 9.91218 7.49984 10.8327V14.166C7.49984 15.0865 6.75365 15.8327 5.83317 15.8327H3.33317C2.4127 15.8327 1.6665 15.0865 1.6665 14.166V9.99935C1.6665 5.39697 5.39746 1.66602 9.99984 1.66602C14.6022 1.66602 18.3332 5.39697 18.3332 9.99935V10.8316V10.8327V14.166V14.1678Z" fill="white"/>
</g>
</svg>
