<svg width="16" height="16" viewBox="0 0 16 16" fill="none" xmlns="http://www.w3.org/2000/svg">
<g id="vuesax/bold/volume-cross">
<g id="volume-cross">
<path id="Vector" d="M15.0198 8.94711L14.0531 7.98044L14.9865 7.04711C15.1798 6.85378 15.1798 6.53378 14.9865 6.34044C14.7931 6.14711 14.4731 6.14711 14.2798 6.34044L13.3465 7.27378L12.3798 6.30711C12.1865 6.11378 11.8665 6.11378 11.6731 6.30711C11.4798 6.50044 11.4798 6.82044 11.6731 7.01378L12.6398 7.98044L11.6465 8.97378C11.4531 9.16711 11.4531 9.48711 11.6465 9.68044C11.7465 9.78044 11.8731 9.82711 11.9998 9.82711C12.1265 9.82711 12.2531 9.78044 12.3531 9.68044L13.3465 8.68711L14.3131 9.65378C14.4131 9.75378 14.5398 9.80044 14.6665 9.80044C14.7931 9.80044 14.9198 9.75378 15.0198 9.65378C15.2131 9.46044 15.2131 9.14711 15.0198 8.94711Z" fill="white"/>
<path id="Vector_2" d="M9.34683 2.52014C8.60016 2.10681 7.64683 2.21347 6.6735 2.82014L4.72683 4.04014C4.5935 4.12014 4.44016 4.16681 4.28683 4.16681H3.66683H3.3335C1.72016 4.16681 0.833496 5.05347 0.833496 6.66681V9.33347C0.833496 10.9468 1.72016 11.8335 3.3335 11.8335H3.66683H4.28683C4.44016 11.8335 4.5935 11.8801 4.72683 11.9601L6.6735 13.1801C7.26016 13.5468 7.8335 13.7268 8.36683 13.7268C8.7135 13.7268 9.04683 13.6468 9.34683 13.4801C10.0868 13.0668 10.5002 12.2068 10.5002 11.0601V4.94014C10.5002 3.79347 10.0868 2.93347 9.34683 2.52014Z" fill="white"/>
</g>
</g>
</svg>
